<svg width="32" height="31" viewBox="0 0 32 31" fill="none" xmlns="http://www.w3.org/2000/svg">
<path d="M15.9957 10.2992C13.0578 10.2992 10.6602 12.5547 10.6602 15.3186C10.6602 18.0825 13.0578 20.338 15.9957 20.338C18.9336 20.338 21.3312 18.0825 21.3312 15.3186C21.3312 12.5547 18.9336 10.2992 15.9957 10.2992ZM31.9982 15.3186C31.9982 13.24 32.0182 11.1803 31.8941 9.10549C31.7701 6.69556 31.1857 4.55676 29.3125 2.7945C27.4352 1.02848 25.1657 0.482478 22.604 0.365747C20.3946 0.249016 18.2052 0.267844 15.9997 0.267844C13.7902 0.267844 11.6008 0.249016 9.39536 0.365747C6.83368 0.482478 4.56019 1.03224 2.68696 2.7945C0.809722 4.56052 0.22934 6.69556 0.105259 9.10549C-0.0188226 11.184 0.00119056 13.2438 0.00119056 15.3186C0.00119056 17.3934 -0.0188226 19.4569 0.105259 21.5317C0.22934 23.9416 0.813724 26.0804 2.68696 27.8427C4.56419 29.6087 6.83368 30.1547 9.39536 30.2714C11.6048 30.3881 13.7943 30.3693 15.9997 30.3693C18.2092 30.3693 20.3986 30.3881 22.604 30.2714C25.1657 30.1547 27.4392 29.6049 29.3125 27.8427C31.1897 26.0766 31.7701 23.9416 31.8941 21.5317C32.0222 19.4569 31.9982 17.3971 31.9982 15.3186ZM15.9957 23.0416C11.4527 23.0416 7.78631 19.5924 7.78631 15.3186C7.78631 11.0447 11.4527 7.59552 15.9957 7.59552C20.5387 7.59552 24.2051 11.0447 24.2051 15.3186C24.2051 19.5924 20.5387 23.0416 15.9957 23.0416ZM24.5413 9.0829C23.4806 9.0829 22.6241 8.27708 22.6241 7.27922C22.6241 6.28136 23.4806 5.47554 24.5413 5.47554C25.602 5.47554 26.4586 6.28136 26.4586 7.27922C26.4589 7.51616 26.4095 7.75084 26.3133 7.96981C26.217 8.18877 26.0758 8.38773 25.8977 8.55527C25.7196 8.72282 25.5082 8.85567 25.2754 8.94621C25.0426 9.03674 24.7932 9.08319 24.5413 9.0829Z" fill="#AF1904"/>
</svg>
