<svg width="60" height="57" viewBox="0 0 60 57" fill="none" xmlns="http://www.w3.org/2000/svg">
<path d="M60 28.275C60 43.8909 46.5685 56.55 30 56.55C13.4315 56.55 0 43.8909 0 28.275C0 12.6591 13.4315 0 30 0C46.5685 0 60 12.6591 60 28.275Z" fill="#AF1904"/>
<g filter="url(#filter0_ddi_80_158)">
<path d="M30.2359 32.94C29.4559 32.94 28.5959 32.81 27.6559 32.55C26.7359 32.31 25.8959 31.95 25.1359 31.47V32.73H22.8259L23.1859 25.71H25.1659C25.2859 26.83 25.5859 27.77 26.0659 28.53C26.5459 29.27 27.1659 29.83 27.9259 30.21C28.6859 30.59 29.5259 30.78 30.4459 30.78C31.1659 30.78 31.7959 30.65 32.3359 30.39C32.8959 30.13 33.3359 29.79 33.6559 29.37C33.9959 28.93 34.1759 28.46 34.1959 27.96C34.2359 27.26 34.0259 26.68 33.5659 26.22C33.1059 25.74 32.5159 25.34 31.7959 25.02C31.0759 24.68 30.3459 24.36 29.6059 24.06C28.3459 23.54 27.2159 22.96 26.2159 22.32C25.2159 21.68 24.4459 20.91 23.9059 20.01C23.3659 19.11 23.1259 18.01 23.1859 16.71C23.2259 16.09 23.3759 15.45 23.6359 14.79C23.9159 14.11 24.3359 13.49 24.8959 12.93C25.4759 12.35 26.2259 11.88 27.1459 11.52C28.0659 11.16 29.1859 10.98 30.5059 10.98C31.3059 10.98 32.1759 11.1 33.1159 11.34C34.0559 11.58 34.8359 11.94 35.4559 12.42V11.19H37.7659L37.4059 18.18H35.4259C35.3059 17.06 35.0359 16.13 34.6159 15.39C34.1959 14.63 33.6359 14.06 32.9359 13.68C32.2559 13.3 31.4459 13.12 30.5059 13.14C29.6459 13.14 28.8759 13.38 28.1959 13.86C27.5359 14.34 27.1859 14.96 27.1459 15.72C27.1259 16.34 27.2759 16.89 27.5959 17.37C27.9159 17.83 28.4159 18.27 29.0959 18.69C29.7959 19.09 30.6859 19.51 31.7659 19.95C32.5059 20.25 33.2659 20.6 34.0459 21C34.8259 21.4 35.5359 21.87 36.1759 22.41C36.8359 22.95 37.3559 23.59 37.7359 24.33C38.1359 25.05 38.3159 25.9 38.2759 26.88C38.2159 28.06 37.8359 29.11 37.1359 30.03C36.4559 30.95 35.5259 31.67 34.3459 32.19C33.1659 32.69 31.7959 32.94 30.2359 32.94Z" fill="white"/>
</g>
<path d="M18.6338 39.3834C19.0445 39.3787 19.3968 39.4254 19.6908 39.5234C19.9848 39.6214 20.2065 39.78 20.3558 39.9994C20.5052 40.2187 20.5635 40.515 20.5308 40.8884C20.5168 41.0844 20.4585 41.271 20.3558 41.4484C20.2578 41.6257 20.1155 41.782 19.9288 41.9174C19.7422 42.0527 19.5112 42.16 19.2358 42.2394C19.2778 42.258 19.3198 42.2837 19.3618 42.3164C19.4038 42.3444 19.4435 42.3794 19.4808 42.4214C19.5228 42.4634 19.5625 42.5077 19.5998 42.5544C19.6372 42.5964 19.6698 42.6407 19.6978 42.6874L19.9988 43.1774C20.0968 43.336 20.1808 43.462 20.2508 43.5554C20.3255 43.6487 20.4002 43.7187 20.4748 43.7654C20.5542 43.8074 20.6452 43.8307 20.7478 43.8354L20.7198 44.2974H19.5858C19.5065 44.2367 19.4272 44.1504 19.3478 44.0384C19.2685 43.9217 19.1868 43.7887 19.1028 43.6394L18.6338 42.7994C18.5825 42.706 18.5335 42.6267 18.4868 42.5614C18.4448 42.496 18.4028 42.44 18.3608 42.3934C18.3142 42.3934 18.2698 42.3934 18.2278 42.3934C18.1905 42.3934 18.1532 42.3934 18.1158 42.3934C18.0832 42.3934 18.0435 42.3934 17.9968 42.3934L17.9548 43.1424C17.9502 43.273 17.9408 43.3967 17.9268 43.5134C17.9175 43.63 17.9082 43.7187 17.8988 43.7794C17.9502 43.7747 18.0155 43.7724 18.0948 43.7724C18.1742 43.7677 18.2512 43.7654 18.3258 43.7654C18.4005 43.7607 18.4542 43.7584 18.4868 43.7584L18.4658 44.2974H16.4008L16.4288 43.8354C16.5315 43.8307 16.6202 43.8167 16.6948 43.7934C16.7695 43.77 16.8278 43.7164 16.8698 43.6324C16.9165 43.5484 16.9445 43.413 16.9538 43.2264L17.0938 40.5454C17.1032 40.4194 17.1125 40.298 17.1218 40.1814C17.1358 40.0647 17.1475 39.976 17.1568 39.9154C17.0822 39.92 16.9888 39.9247 16.8768 39.9294C16.7648 39.9294 16.6832 39.9317 16.6318 39.9364L16.6598 39.3974C16.9912 39.3927 17.3202 39.3904 17.6468 39.3904C17.9782 39.3904 18.3072 39.388 18.6338 39.3834ZM18.5988 39.8734C18.5008 39.8734 18.4145 39.885 18.3398 39.9084C18.2698 39.9317 18.2138 39.983 18.1718 40.0624C18.1298 40.1417 18.1042 40.263 18.0948 40.4264L18.0248 41.8614C18.0762 41.866 18.1298 41.873 18.1858 41.8824C18.2418 41.887 18.3002 41.8894 18.3608 41.8894C18.6222 41.8894 18.8345 41.852 18.9978 41.7774C19.1612 41.698 19.2825 41.5814 19.3618 41.4274C19.4458 41.2687 19.4925 41.0704 19.5018 40.8324C19.5158 40.6084 19.4902 40.4334 19.4248 40.3074C19.3595 40.1767 19.2755 40.081 19.1728 40.0204C19.0748 39.955 18.9722 39.9154 18.8648 39.9014C18.7575 39.8827 18.6688 39.8734 18.5988 39.8734ZM21.7725 40.7204C22.0151 40.7204 22.1831 40.795 22.2765 40.9444C22.3745 41.089 22.4235 41.285 22.4235 41.5324C22.4235 41.6444 22.4118 41.796 22.3885 41.9874C22.3651 42.1787 22.3395 42.3794 22.3115 42.5894C22.2835 42.7994 22.2578 42.9907 22.2345 43.1634C22.2111 43.336 22.1995 43.462 22.1995 43.5414C22.1995 43.616 22.2111 43.665 22.2345 43.6884C22.2578 43.7117 22.2811 43.7234 22.3045 43.7234C22.3605 43.7234 22.4165 43.6837 22.4725 43.6044C22.5285 43.525 22.5868 43.3804 22.6475 43.1704L23.0255 43.2824C23.0068 43.3804 22.9695 43.4924 22.9135 43.6184C22.8621 43.7444 22.7921 43.8657 22.7035 43.9824C22.6148 44.0944 22.5075 44.1877 22.3815 44.2624C22.2601 44.337 22.1201 44.3744 21.9615 44.3744C21.7048 44.3744 21.5275 44.3044 21.4295 44.1644C21.3361 44.0244 21.2895 43.8307 21.2895 43.5834C21.2895 43.448 21.3011 43.287 21.3245 43.1004C21.3478 42.9137 21.3735 42.7224 21.4015 42.5264C21.4341 42.3304 21.4621 42.1484 21.4855 41.9804C21.5088 41.8077 21.5205 41.6654 21.5205 41.5534C21.5205 41.474 21.5088 41.425 21.4855 41.4064C21.4621 41.383 21.4365 41.3714 21.4085 41.3714C21.3571 41.3714 21.3035 41.411 21.2475 41.4904C21.1915 41.5697 21.1331 41.7144 21.0725 41.9244L20.6945 41.8124C20.7131 41.7144 20.7505 41.6024 20.8065 41.4764C20.8625 41.3504 20.9348 41.2314 21.0235 41.1194C21.1168 41.0027 21.2241 40.907 21.3455 40.8324C21.4715 40.7577 21.6138 40.7204 21.7725 40.7204ZM22.0175 38.9564C22.1715 38.9564 22.2951 39.0124 22.3885 39.1244C22.4865 39.2364 22.5308 39.374 22.5215 39.5374C22.5168 39.696 22.4631 39.8314 22.3605 39.9434C22.2578 40.0507 22.1295 40.1044 21.9755 40.1044C21.8168 40.1044 21.6885 40.0507 21.5905 39.9434C21.4971 39.8314 21.4528 39.696 21.4575 39.5374C21.4668 39.374 21.5275 39.2364 21.6395 39.1244C21.7515 39.0124 21.8775 38.9564 22.0175 38.9564ZM24.0787 44.3744C23.8454 44.3744 23.6517 44.316 23.4977 44.1994C23.3437 44.078 23.2294 43.917 23.1547 43.7164C23.0801 43.5157 23.0427 43.2894 23.0427 43.0374C23.0427 42.594 23.1104 42.1974 23.2457 41.8474C23.3857 41.4974 23.5981 41.222 23.8827 41.0214C24.1721 40.8207 24.5384 40.7204 24.9817 40.7204C25.0144 40.7204 25.0704 40.7227 25.1497 40.7274C25.2291 40.7274 25.2851 40.7297 25.3177 40.7344C25.3411 40.5197 25.3574 40.3494 25.3667 40.2234C25.3807 40.0974 25.3924 39.997 25.4017 39.9224C25.4111 39.8477 25.4204 39.7847 25.4297 39.7334C25.3551 39.738 25.2664 39.7427 25.1637 39.7474C25.0657 39.7474 24.9911 39.7497 24.9397 39.7544L24.9677 39.2224C25.1871 39.2224 25.3691 39.2107 25.5137 39.1874C25.6584 39.164 25.7727 39.136 25.8567 39.1034C25.9454 39.0707 26.0061 39.0404 26.0387 39.0124H26.4167C26.3747 39.3857 26.3304 39.759 26.2837 40.1324C26.2417 40.5057 26.1997 40.879 26.1577 41.2524C26.1251 41.5697 26.0901 41.8754 26.0527 42.1694C26.0154 42.4634 25.9851 42.727 25.9617 42.9604C25.9384 43.1937 25.9267 43.3804 25.9267 43.5204C25.9267 43.6044 25.9384 43.6604 25.9617 43.6884C25.9851 43.7117 26.0084 43.7234 26.0317 43.7234C26.0831 43.7234 26.1367 43.6837 26.1927 43.6044C26.2487 43.525 26.3071 43.3804 26.3677 43.1704L26.7527 43.2824C26.7341 43.3804 26.7014 43.4924 26.6547 43.6184C26.6081 43.7444 26.5474 43.8657 26.4727 43.9824C26.3981 44.0944 26.3047 44.1877 26.1927 44.2624C26.0854 44.337 25.9547 44.3744 25.8007 44.3744C25.6514 44.3744 25.5207 44.33 25.4087 44.2414C25.2967 44.1527 25.2407 43.9847 25.2407 43.7374C25.2407 43.644 25.2431 43.5717 25.2477 43.5204C25.2524 43.4644 25.2594 43.3967 25.2687 43.3174H25.2617C25.1497 43.5927 25.0261 43.8074 24.8907 43.9614C24.7554 44.1154 24.6177 44.2227 24.4777 44.2834C24.3377 44.344 24.2047 44.3744 24.0787 44.3744ZM24.3377 43.7374C24.4544 43.7374 24.5594 43.679 24.6527 43.5624C24.7507 43.4457 24.8371 43.2847 24.9117 43.0794C24.9911 42.8694 25.0587 42.629 25.1147 42.3584C25.1474 42.1904 25.1754 42.013 25.1987 41.8264C25.2221 41.635 25.2431 41.439 25.2617 41.2384C25.2291 41.2244 25.1707 41.2127 25.0867 41.2034C25.0027 41.1894 24.9374 41.1824 24.8907 41.1824C24.7321 41.1824 24.5991 41.229 24.4917 41.3224C24.3844 41.411 24.2981 41.5277 24.2327 41.6724C24.1674 41.817 24.1161 41.9734 24.0787 42.1414C24.0461 42.3094 24.0227 42.4727 24.0087 42.6314C23.9994 42.7854 23.9947 42.9184 23.9947 43.0304C23.9947 43.2684 24.0251 43.4457 24.0857 43.5624C24.1511 43.679 24.2351 43.7374 24.3377 43.7374ZM28.5179 40.7204C28.7232 40.7204 28.9052 40.7507 29.0639 40.8114C29.2226 40.872 29.3462 40.9677 29.4349 41.0984C29.5236 41.229 29.5679 41.397 29.5679 41.6024C29.5679 41.7937 29.5096 41.957 29.3929 42.0924C29.2809 42.223 29.1316 42.3304 28.9449 42.4144C28.7629 42.4984 28.5622 42.5684 28.3429 42.6244C28.1236 42.6757 27.9112 42.7154 27.7059 42.7434C27.7059 43.0094 27.7362 43.2147 27.7969 43.3594C27.8622 43.4994 27.9439 43.5974 28.0419 43.6534C28.1399 43.7047 28.2379 43.7304 28.3359 43.7304C28.4152 43.7304 28.5086 43.7164 28.6159 43.6884C28.7279 43.6557 28.8399 43.5904 28.9519 43.4924C29.0639 43.3944 29.1619 43.2497 29.2459 43.0584L29.6379 43.2474C29.5072 43.5507 29.3602 43.784 29.1969 43.9474C29.0336 44.1107 28.8632 44.2227 28.6859 44.2834C28.5086 44.344 28.3289 44.3744 28.1469 44.3744C27.7176 44.379 27.3769 44.2554 27.1249 44.0034C26.8729 43.7514 26.7469 43.3664 26.7469 42.8484C26.7469 42.6244 26.7819 42.3887 26.8519 42.1414C26.9219 41.894 27.0269 41.663 27.1669 41.4484C27.3116 41.2337 27.4959 41.0587 27.7199 40.9234C27.9439 40.788 28.2099 40.7204 28.5179 40.7204ZM28.4409 41.1824C28.2822 41.1824 28.1539 41.2384 28.0559 41.3504C27.9579 41.4624 27.8832 41.6047 27.8319 41.7774C27.7806 41.9454 27.7456 42.1157 27.7269 42.2884C27.9789 42.2417 28.1796 42.1787 28.3289 42.0994C28.4782 42.02 28.5856 41.929 28.6509 41.8264C28.7209 41.7237 28.7536 41.6164 28.7489 41.5044C28.7442 41.3877 28.7092 41.306 28.6439 41.2594C28.5786 41.208 28.5109 41.1824 28.4409 41.1824ZM32.6049 44.3744C32.3809 44.3744 32.1732 44.3417 31.9819 44.2764C31.7952 44.211 31.6435 44.1177 31.5269 43.9964C31.4102 43.8704 31.3519 43.7257 31.3519 43.5624C31.3519 43.4177 31.3939 43.301 31.4779 43.2124C31.5665 43.119 31.6739 43.0724 31.7999 43.0724C31.9259 43.0724 32.0285 43.1144 32.1079 43.1984C32.1872 43.2824 32.2269 43.385 32.2269 43.5064C32.2269 43.539 32.2222 43.574 32.2129 43.6114C32.2082 43.644 32.1989 43.679 32.1849 43.7164C32.2082 43.763 32.2689 43.8074 32.3669 43.8494C32.4695 43.8914 32.5559 43.9124 32.6259 43.9124C32.8312 43.9124 32.9735 43.868 33.0529 43.7794C33.1369 43.6907 33.1789 43.5904 33.1789 43.4784C33.1789 43.3897 33.1439 43.3127 33.0739 43.2474C33.0085 43.1774 32.9222 43.1097 32.8149 43.0444C32.7075 42.979 32.5932 42.9114 32.4719 42.8414C32.2525 42.7154 32.0705 42.5987 31.9259 42.4914C31.7812 42.384 31.6739 42.272 31.6039 42.1554C31.5385 42.034 31.5059 41.8917 31.5059 41.7284C31.5059 41.565 31.5572 41.4064 31.6599 41.2524C31.7625 41.0984 31.9119 40.9724 32.1079 40.8744C32.3085 40.7717 32.5512 40.7204 32.8359 40.7204C33.0225 40.7204 33.2045 40.7507 33.3819 40.8114C33.5639 40.872 33.7132 40.9607 33.8299 41.0774C33.9512 41.1894 34.0119 41.327 34.0119 41.4904C34.0119 41.6117 33.9722 41.719 33.8929 41.8124C33.8135 41.9057 33.7062 41.9524 33.5709 41.9524C33.4449 41.9524 33.3422 41.9104 33.2629 41.8264C33.1882 41.7377 33.1509 41.6374 33.1509 41.5254C33.1509 41.488 33.1532 41.453 33.1579 41.4204C33.1672 41.3877 33.1789 41.355 33.1929 41.3224C33.1555 41.271 33.0972 41.236 33.0179 41.2174C32.9432 41.194 32.8732 41.1824 32.8079 41.1824C32.7425 41.1824 32.6725 41.1964 32.5979 41.2244C32.5279 41.2524 32.4672 41.2944 32.4159 41.3504C32.3645 41.4017 32.3389 41.467 32.3389 41.5464C32.3389 41.6117 32.3529 41.67 32.3809 41.7214C32.4135 41.768 32.4765 41.824 32.5699 41.8894C32.6632 41.95 32.8032 42.0364 32.9899 42.1484C33.1439 42.237 33.3002 42.3327 33.4589 42.4354C33.6222 42.538 33.7575 42.6594 33.8649 42.7994C33.9769 42.9347 34.0329 43.1004 34.0329 43.2964C34.0329 43.5064 33.9699 43.693 33.8439 43.8564C33.7179 44.0197 33.5475 44.148 33.3329 44.2414C33.1182 44.33 32.8755 44.3744 32.6049 44.3744ZM36.3779 40.7204C36.5085 40.7204 36.6602 40.7344 36.8329 40.7624C37.0102 40.7857 37.1945 40.8207 37.3859 40.8674C37.3625 41.04 37.3322 41.2524 37.2949 41.5044C37.2575 41.7564 37.2202 42.0154 37.1829 42.2814C37.1502 42.5427 37.1222 42.7854 37.0989 43.0094C37.0755 43.2287 37.0639 43.399 37.0639 43.5204C37.0639 43.6044 37.0732 43.6604 37.0919 43.6884C37.1152 43.7117 37.1385 43.7234 37.1619 43.7234C37.2179 43.7234 37.2762 43.6837 37.3369 43.6044C37.3975 43.525 37.4582 43.3804 37.5189 43.1704L37.8969 43.2824C37.8782 43.3804 37.8455 43.4924 37.7989 43.6184C37.7522 43.7444 37.6892 43.8657 37.6099 43.9824C37.5352 44.0944 37.4395 44.1877 37.3229 44.2624C37.2109 44.337 37.0779 44.3744 36.9239 44.3744C36.7745 44.3744 36.6439 44.33 36.5319 44.2414C36.4199 44.1527 36.3639 43.9847 36.3639 43.7374C36.3639 43.6767 36.3662 43.609 36.3709 43.5344C36.3755 43.4597 36.3825 43.392 36.3919 43.3314H36.3849C36.3009 43.532 36.2099 43.7 36.1119 43.8354C36.0185 43.9707 35.9205 44.078 35.8179 44.1574C35.7199 44.2367 35.6172 44.2927 35.5099 44.3254C35.4072 44.358 35.3022 44.3744 35.1949 44.3744C34.9382 44.3744 34.7189 44.2717 34.5369 44.0664C34.3549 43.8564 34.2639 43.5344 34.2639 43.1004C34.2639 42.7784 34.3105 42.475 34.4039 42.1904C34.4972 41.9057 34.6349 41.6537 34.8169 41.4344C34.9989 41.2104 35.2205 41.0354 35.4819 40.9094C35.7432 40.7834 36.0419 40.7204 36.3779 40.7204ZM36.1189 41.1824C35.9882 41.1824 35.8669 41.2244 35.7549 41.3084C35.6475 41.3924 35.5519 41.516 35.4679 41.6794C35.3885 41.8427 35.3279 42.0457 35.2859 42.2884C35.2439 42.531 35.2229 42.8134 35.2229 43.1354C35.2229 43.3267 35.2462 43.4784 35.2929 43.5904C35.3395 43.6977 35.4049 43.7514 35.4889 43.7514C35.5915 43.7514 35.6872 43.7 35.7759 43.5974C35.8645 43.49 35.9439 43.3477 36.0139 43.1704C36.0885 42.9884 36.1515 42.7877 36.2029 42.5684C36.2589 42.3444 36.3032 42.118 36.3359 41.8894C36.3732 41.656 36.3965 41.4344 36.4059 41.2244C36.3825 41.215 36.3405 41.2057 36.2799 41.1964C36.2239 41.187 36.1702 41.1824 36.1189 41.1824ZM39.9937 38.9774C40.2037 38.9774 40.3647 39.0264 40.4767 39.1244C40.5933 39.2224 40.6517 39.346 40.6517 39.4954C40.6517 39.5467 40.6377 39.6074 40.6097 39.6774C40.5817 39.7427 40.535 39.801 40.4697 39.8524C40.409 39.899 40.325 39.9224 40.2177 39.9224C40.115 39.9177 40.0263 39.8757 39.9517 39.7964C39.8817 39.7124 39.856 39.6097 39.8747 39.4884C39.87 39.4837 39.8583 39.4814 39.8397 39.4814C39.8257 39.4767 39.807 39.4744 39.7837 39.4744C39.7043 39.4744 39.639 39.5164 39.5877 39.6004C39.5363 39.6844 39.4943 39.794 39.4617 39.9294C39.4337 40.0647 39.4103 40.2094 39.3917 40.3634C39.3777 40.5174 39.3637 40.662 39.3497 40.7974H40.2527L40.2037 41.2804L39.3217 41.2944C39.3077 41.495 39.2913 41.7307 39.2727 42.0014C39.254 42.2674 39.233 42.5474 39.2097 42.8414C39.1863 43.1307 39.163 43.4107 39.1397 43.6814C39.1163 43.9474 39.093 44.1784 39.0697 44.3744C39.0463 44.589 39.0067 44.7897 38.9507 44.9764C38.8993 45.163 38.834 45.331 38.7547 45.4804C38.6753 45.6297 38.5773 45.758 38.4607 45.8654C38.344 45.9727 38.211 46.0544 38.0617 46.1104C37.9123 46.1664 37.742 46.1944 37.5507 46.1944C37.336 46.1944 37.1727 46.1477 37.0607 46.0544C36.944 45.9657 36.8857 45.8444 36.8857 45.6904C36.8857 45.6344 36.8997 45.5714 36.9277 45.5014C36.9557 45.4314 37.0023 45.3707 37.0677 45.3194C37.133 45.268 37.217 45.2447 37.3197 45.2494C37.427 45.254 37.5157 45.296 37.5857 45.3754C37.6557 45.4594 37.6813 45.562 37.6627 45.6834C37.6907 45.6927 37.721 45.6974 37.7537 45.6974C37.833 45.6974 37.8983 45.6554 37.9497 45.5714C38.001 45.4874 38.0407 45.3777 38.0687 45.2424C38.1013 45.107 38.1247 44.9624 38.1387 44.8084C38.1573 44.6544 38.1737 44.5097 38.1877 44.3744C38.2063 44.1737 38.225 43.9404 38.2437 43.6744C38.2623 43.4037 38.281 43.1237 38.2997 42.8344C38.323 42.5404 38.344 42.2604 38.3627 41.9944C38.386 41.7284 38.4047 41.4974 38.4187 41.3014L37.8587 41.3084L37.9217 40.7974H38.4817C38.5237 40.438 38.6007 40.123 38.7127 39.8524C38.8293 39.577 38.9927 39.3624 39.2027 39.2084C39.4127 39.0544 39.6763 38.9774 39.9937 38.9774ZM41.8306 40.7204C42.0359 40.7204 42.2179 40.7507 42.3766 40.8114C42.5353 40.872 42.6589 40.9677 42.7476 41.0984C42.8363 41.229 42.8806 41.397 42.8806 41.6024C42.8806 41.7937 42.8223 41.957 42.7056 42.0924C42.5936 42.223 42.4443 42.3304 42.2576 42.4144C42.0756 42.4984 41.8749 42.5684 41.6556 42.6244C41.4363 42.6757 41.2239 42.7154 41.0186 42.7434C41.0186 43.0094 41.0489 43.2147 41.1096 43.3594C41.1749 43.4994 41.2566 43.5974 41.3546 43.6534C41.4526 43.7047 41.5506 43.7304 41.6486 43.7304C41.7279 43.7304 41.8213 43.7164 41.9286 43.6884C42.0406 43.6557 42.1526 43.5904 42.2646 43.4924C42.3766 43.3944 42.4746 43.2497 42.5586 43.0584L42.9506 43.2474C42.8199 43.5507 42.6729 43.784 42.5096 43.9474C42.3463 44.1107 42.1759 44.2227 41.9986 44.2834C41.8213 44.344 41.6416 44.3744 41.4596 44.3744C41.0303 44.379 40.6896 44.2554 40.4376 44.0034C40.1856 43.7514 40.0596 43.3664 40.0596 42.8484C40.0596 42.6244 40.0946 42.3887 40.1646 42.1414C40.2346 41.894 40.3396 41.663 40.4796 41.4484C40.6243 41.2337 40.8086 41.0587 41.0326 40.9234C41.2566 40.788 41.5226 40.7204 41.8306 40.7204ZM41.7536 41.1824C41.5949 41.1824 41.4666 41.2384 41.3686 41.3504C41.2706 41.4624 41.1959 41.6047 41.1446 41.7774C41.0933 41.9454 41.0583 42.1157 41.0396 42.2884C41.2916 42.2417 41.4923 42.1787 41.6416 42.0994C41.7909 42.02 41.8983 41.929 41.9636 41.8264C42.0336 41.7237 42.0663 41.6164 42.0616 41.5044C42.0569 41.3877 42.0219 41.306 41.9566 41.2594C41.8913 41.208 41.8236 41.1824 41.7536 41.1824Z" fill="white"/>
<defs>
<filter id="filter0_ddi_80_158" x="18.8259" y="10.9799" width="23.51" height="29.96" filterUnits="userSpaceOnUse" color-interpolation-filters="sRGB">
<feFlood flood-opacity="0" result="BackgroundImageFix"/>
<feColorMatrix in="SourceAlpha" type="matrix" values="0 0 0 0 0 0 0 0 0 0 0 0 0 0 0 0 0 0 127 0" result="hardAlpha"/>
<feOffset dy="4"/>
<feGaussianBlur stdDeviation="2"/>
<feComposite in2="hardAlpha" operator="out"/>
<feColorMatrix type="matrix" values="0 0 0 0 0 0 0 0 0 0 0 0 0 0 0 0 0 0 0.25 0"/>
<feBlend mode="normal" in2="BackgroundImageFix" result="effect1_dropShadow_80_158"/>
<feColorMatrix in="SourceAlpha" type="matrix" values="0 0 0 0 0 0 0 0 0 0 0 0 0 0 0 0 0 0 127 0" result="hardAlpha"/>
<feOffset dy="4"/>
<feGaussianBlur stdDeviation="2"/>
<feComposite in2="hardAlpha" operator="out"/>
<feColorMatrix type="matrix" values="0 0 0 0 0 0 0 0 0 0 0 0 0 0 0 0 0 0 0.25 0"/>
<feBlend mode="normal" in2="effect1_dropShadow_80_158" result="effect2_dropShadow_80_158"/>
<feBlend mode="normal" in="SourceGraphic" in2="effect2_dropShadow_80_158" result="shape"/>
<feColorMatrix in="SourceAlpha" type="matrix" values="0 0 0 0 0 0 0 0 0 0 0 0 0 0 0 0 0 0 127 0" result="hardAlpha"/>
<feOffset dy="4"/>
<feGaussianBlur stdDeviation="2"/>
<feComposite in2="hardAlpha" operator="arithmetic" k2="-1" k3="1"/>
<feColorMatrix type="matrix" values="0 0 0 0 0 0 0 0 0 0 0 0 0 0 0 0 0 0 0.25 0"/>
<feBlend mode="normal" in2="shape" result="effect3_innerShadow_80_158"/>
</filter>
</defs>
</svg>
