<svg width="32" height="31" viewBox="0 0 32 31" fill="none" xmlns="http://www.w3.org/2000/svg">
<path d="M16 0.0567932C24.8457 0.0567932 32 6.77826 32 15.0888C32 23.3994 24.8457 30.1209 16 30.1209C7.15429 30.1209 0 23.3994 0 15.0888C0 6.77826 7.15429 0.0567932 16 0.0567932ZM13.0743 23.0129C20.16 23.0129 24.0457 17.494 24.0457 12.7052V12.2327C24.8 11.7174 25.4629 11.0731 25.9657 10.343C25.28 10.6222 24.5257 10.8154 23.7486 10.9228C24.5486 10.4718 25.1657 9.76319 25.44 8.92569C24.6857 9.33371 23.8629 9.63435 22.9943 9.80614C22.2857 9.09749 21.28 8.668 20.1829 8.668C18.0571 8.668 16.32 10.3001 16.32 12.2972C16.32 12.5763 16.3429 12.8555 16.4343 13.1132C13.2343 12.9629 10.3771 11.5241 8.48 9.33371C8.16 9.87056 7.95429 10.4933 7.95429 11.159C7.95429 12.4045 8.64 13.5212 9.66857 14.1654C9.02857 14.1654 8.43429 13.9936 7.93143 13.7145V13.7574C7.93143 15.5183 9.25714 16.9786 11.0171 17.3222C10.6971 17.4081 10.3543 17.451 10.0114 17.451C9.76 17.451 9.53143 17.4295 9.28 17.3866C9.76 18.8254 11.2 19.8776 12.8686 19.8991C11.5429 20.8654 9.87429 21.4452 8.06857 21.4452C7.74857 21.4452 7.45143 21.4452 7.15429 21.4023C8.84571 22.433 10.88 23.0343 13.0514 23.0343" fill="white"/>
</svg>
